# File created by Blade
# Date/Time:  Wed Apr 08 17:35:20 2015
#---------------------------------------------------------
:version 1.10
:name HOM
:units
  mass 1.0
  length 1.000000
  angle deg
:documentation
     Acclaim Skeleton File
:root
   axis xyz
   order TX TY TZ RX RY RZ
   position 0.000000 0.000000 0.000000
   orientation 0 0 0
:bonedata
   begin
      id 1
      name Spine_dum
      direction 0.000000 1.000000 0.000000
      length 5.893853
      axis 0.0 0.0 0.0 xyz
   end
   begin
      id 2
      name LeftUpLeg_dum
      direction 1.000000 0.000000 0.000000
      length 3.697939
      axis 0.0 0.0 0.0 xyz
   end
   begin
      id 3
      name RightUpLeg_dum
      direction -1.000000 0.000000 0.000000
      length 3.697939
      axis 0.0 0.0 0.0 xyz
   end
   begin
      id 4
      name Spine
      direction 0.000000 1.000000 0.000000
      length 0.000000
      axis 0.0 0.0 0.0 xyz
      dof rx ry rz
   end
   begin
      id 5
      name Spine_dum1
      direction 0.000000 1.000000 0.000000
      length 16.447146
      axis 0.0 0.0 0.0 xyz
   end
   begin
      id 6
      name Spine_dum2
      direction 0.000000 1.000000 0.000000
      length 10.900383
      axis 0.0 0.0 0.0 xyz
   end
   begin
      id 7
      name Spine_dum3
      direction 0.000000 1.000000 0.000000
      length 10.900383
      axis 0.0 0.0 0.0 xyz
   end
   begin
      id 8
      name Head
      direction 0.000000 1.000000 0.000000
      length 4.527550
      axis 0.0 0.0 0.0 xyz
      dof rx ry rz
   end
   begin
      id 9
      name LeftShoulder
      direction 1.000000 0.000000 0.000000
      length 8.219464
      axis 0.0 0.0 -90.0 xyz
      dof rx ry rz
   end
   begin
      id 10
      name LeftArm
      direction 1.000000 0.000000 0.000000
      length 11.094937
      axis 0.0 0.0 -90.0 xyz
      dof rx ry rz
   end
   begin
      id 11
      name LeftForeArm
      direction 1.000000 0.000000 0.000000
      length 9.103875
      axis 0.0 0.0 -90.0 xyz
      dof ry rz rx
   end
   begin
      id 12
      name LeftHand
      direction 0.000000 0.000000 0.000000
      length 0.000000
      axis 0.0 0.0 -90.0 xyz
      dof rx ry rz
   end
   begin
      id 13
      name LeftHand_dum1
      direction 0.000000 0.000000 0.000000
      length 0.000000
      axis 0.0 0.0 -90.0 xyz
   end
   begin
      id 14
      name LeftHand_dum2
      direction 1.000000 0.000000 0.000000
      length 3.937000
      axis 0.0 0.0 -90.0 xyz
   end
   begin
      id 15
      name LeftHandThumb1
      direction 0.000000 0.000000 1.000000
      length 3.937000
      axis 0.0 0.0 -90.0 xyz
      dof rx rz ry
   end
   begin
      id 16
      name RightShoulder
      direction -1.000000 0.000000 0.000000
      length 8.219464
      axis 0.0 0.0 90.0 xyz
      dof rx ry rz
   end
   begin
      id 17
      name RightArm
      direction -1.000000 0.000000 0.000000
      length 11.094937
      axis 0.0 0.0 90.0 xyz
      dof rx ry rz
   end
   begin
      id 18
      name RightForeArm
      direction -1.000000 0.000000 0.000000
      length 9.103875
      axis 0.0 0.0 90.0 xyz
      dof ry rz rx
   end
   begin
      id 19
      name RightHand
      direction 0.000000 0.000000 0.000000
      length 0.000000
      axis 0.0 0.0 90.0 xyz
      dof rx ry rz
   end
   begin
      id 20
      name RightHand_dum1
      direction 0.000000 0.000000 0.000000
      length 0.000000
      axis 0.0 0.0 90.0 xyz
   end
   begin
      id 21
      name RightHand_dum2
      direction -1.000000 0.000000 0.000000
      length 3.937000
      axis 0.0 0.0 90.0 xyz
   end
   begin
      id 22
      name RightHandThumb1
      direction 0.000000 0.000000 1.000000
      length 3.937000
      axis 0.0 0.0 90.0 xyz
      dof rx rz ry
   end
   begin
      id 23
      name LeftUpLeg
      direction 0.000000 -1.000000 0.000000
      length 16.181467
      axis 0.0 0.0 0.0 xyz
      dof rx ry rz
   end
   begin
      id 24
      name LeftLeg
      direction 0.000000 -1.000000 0.000000
      length 16.501392
      axis 0.0 0.0 0.0 xyz
      dof rx ry rz
   end
   begin
      id 25
      name LeftFoot
      direction 0.000000 -0.258819 0.965926
      length 6.408245
      axis 15.0 0.0 0.0 xyz
      dof rx ry rz
   end
   begin
      id 26
      name LeftToeBase
      direction 0.000000 0.000000 1.000000
      length 2.952750
      axis 0.0 0.0 0.0 xyz
      dof rx ry rz
   end
   begin
      id 27
      name RightUpLeg
      direction 0.000000 -1.000000 0.000000
      length 16.181467
      axis 0.0 0.0 0.0 xyz
      dof rx ry rz
   end
   begin
      id 28
      name RightLeg
      direction 0.000000 -1.000000 0.000000
      length 16.501392
      axis 0.0 0.0 0.0 xyz
      dof rx ry rz
   end
   begin
      id 29
      name RightFoot
      direction 0.000000 -0.258819 0.965926
      length 6.408245
      axis 15.0 0.0 0.0 xyz
      dof rx ry rz
   end
   begin
      id 30
      name RightToeBase
      direction 0.000000 0.000000 1.000000
      length 2.952750
      axis 0.0 0.0 0.0 xyz
      dof rx ry rz
   end
:hierarchy
   begin
      root Spine_dum LeftUpLeg_dum RightUpLeg_dum
      Spine_dum Spine
      LeftUpLeg_dum LeftUpLeg
      RightUpLeg_dum RightUpLeg
      Spine Spine_dum1 Spine_dum2 Spine_dum3
      Spine_dum1 Head
      Spine_dum2 LeftShoulder
      Spine_dum3 RightShoulder
      LeftShoulder LeftArm
      LeftArm LeftForeArm
      LeftForeArm LeftHand
      LeftHand LeftHand_dum1 LeftHand_dum2
      LeftHand_dum1 LeftHandThumb1
      RightShoulder RightArm
      RightArm RightForeArm
      RightForeArm RightHand
      RightHand RightHand_dum1 RightHand_dum2
      RightHand_dum1 RightHandThumb1
      LeftUpLeg LeftLeg
      LeftLeg LeftFoot
      LeftFoot LeftToeBase
      RightUpLeg RightLeg
      RightLeg RightFoot
      RightFoot RightToeBase
   end

# File created by Blade
# Date/Time:  Wed Apr 08 17:35:25 2015
# Frame Rate: 120.000 fps
#------------------------------------------------------
:FULLY-SPECIFIED
:DEGREES
864
root 8.877526 37.152849 4.173042 114.203500 -74.294444 -76.517034
Spine -39.033949 -0.113914 12.134574
Head 33.647521 2.370381 10.819118
LeftShoulder -10.504360 24.398731 12.506657
LeftArm 21.670812 27.411243 -75.329736
LeftForeArm 18.858610 -0.000000 29.688227
LeftHand -12.753870 -0.000000 -11.268346
LeftHandThumb1 -26.253704 0.000000 33.147579
RightShoulder -41.049064 -53.096750 18.976737
RightArm 56.377456 -23.851730 43.817739
RightForeArm 2.460524 -0.000000 25.417916
RightHand -1.238932 -0.000000 26.638105
RightHandThumb1 -24.326973 -0.000000 -32.862282
LeftUpLeg -50.860210 16.469312 -4.749077
LeftLeg 23.045959 -0.000000 -0.000000
LeftFoot -13.367374 10.033826 -6.402595
LeftToeBase 8.036853 -0.000000 -0.000000
RightUpLeg -129.121528 -0.415365 36.935980
RightLeg 93.971424 -0.000000 -0.000000
RightFoot -24.061666 -21.050967 12.498595
RightToeBase -23.996542 -0.000000 0.000000
865
root 8.871177 37.154055 4.177035 113.990011 -74.289486 -76.292980
Spine -39.081870 -0.102996 12.118076
Head 33.614356 2.300375 10.816831
LeftShoulder -10.505614 24.414643 12.499678
LeftArm 21.712487 27.489674 -75.297948
LeftForeArm 18.874921 -0.000000 29.875086
LeftHand -12.693306 0.000000 -11.327155
LeftHandThumb1 -26.253704 0.000000 33.147579
RightShoulder -41.032127 -53.094474 18.939442
RightArm 56.456051 -23.887913 43.713202
RightForeArm 2.252530 0.000000 25.502113
RightHand -1.433578 -0.000000 26.681783
RightHandThumb1 -24.326973 -0.000000 -32.862282
LeftUpLeg -50.894646 16.522454 -4.794677
LeftLeg 23.090888 -0.000000 -0.000000
LeftFoot -13.454279 9.831493 -6.554081
LeftToeBase 8.290762 -0.000000 -0.000000
RightUpLeg -129.127492 -0.711753 36.617934
RightLeg 93.674808 -0.000000 -0.000000
RightFoot -24.222110 -22.790254 11.588767
RightToeBase -24.411209 -0.000000 0.000000
866
root 8.863931 37.155414 4.182418 113.833830 -74.280383 -76.125398
Spine -39.128983 -0.069340 12.099739
Head 33.578852 2.229373 10.808491
LeftShoulder -10.515598 24.416088 12.484480
LeftArm 21.740621 27.579729 -75.268155
LeftForeArm 18.871201 -0.000000 30.051761
LeftHand -12.667794 -0.000000 -11.348126
LeftHandThumb1 -26.253704 0.000000 33.147579
RightShoulder -41.013298 -53.064105 18.892589
RightArm 56.510924 -23.933267 43.598549
RightForeArm 2.079121 -0.000000 25.624653
RightHand -1.698309 -0.000000 26.847260
RightHandThumb1 -24.326973 -0.000000 -32.862282
LeftUpLeg -50.924234 16.568785 -4.826460
LeftLeg 23.133024 -0.000000 -0.000000
LeftFoot -13.519068 9.666512 -6.649158
LeftToeBase 8.475333 -0.000000 -0.000000
RightUpLeg -129.128670 -1.039091 36.233431
RightLeg 93.480389 -0.000000 -0.000000
RightFoot -24.221553 -24.092414 10.799451
RightToeBase -24.941751 -0.000000 0.000000
867
root 8.856176 37.155841 4.186304 113.639688 -74.279392 -75.927755
Spine -39.171126 -0.057032 12.070752
Head 33.546497 2.164940 10.817778
LeftShoulder -10.521018 24.422959 12.485749
LeftArm 21.755775 27.635549 -75.269763
LeftForeArm 18.860384 0.000000 30.205078
LeftHand -12.664007 0.000000 -11.324552
LeftHandThumb1 -26.253704 0.000000 33.147579
RightShoulder -40.958755 -53.055959 18.829055
RightArm 56.557639 -23.973454 43.520247
RightForeArm 1.768639 -0.000000 25.707237
RightHand -1.827906 -0.000000 26.950231
RightHandThumb1 -24.326973 -0.000000 -32.862282
LeftUpLeg -50.952771 16.610702 -4.863345
LeftLeg 23.190309 -0.000000 -0.000000
LeftFoot -13.586273 9.481638 -6.783568
LeftToeBase 8.671666 -0.000000 -0.000000
RightUpLeg -129.146097 -1.385778 35.835744
RightLeg 93.376733 -0.000000 -0.000000
RightFoot -24.141521 -25.175210 10.109716
RightToeBase -25.589188 -0.000000 0.000000
868
root 8.846110 37.156779 4.189460 113.435931 -74.257635 -75.724058
Spine -39.212338 -0.013183 12.049459
Head 33.512344 2.072999 10.815181
LeftShoulder -10.509585 24.427529 12.480324
LeftArm 21.770454 27.687418 -75.271553
LeftForeArm 18.918547 -0.000000 30.346994
LeftHand -12.681016 -0.000000 -11.309245
LeftHandThumb1 -26.253704 0.000000 33.147579
RightShoulder -40.946750 -53.039041 18.795229
RightArm 56.607121 -24.018252 43.435793
RightForeArm 1.538278 0.000000 25.770780
RightHand -1.906939 -0.000000 27.098981
RightHandThumb1 -24.326973 -0.000000 -32.862282
LeftUpLeg -50.968163 16.646730 -4.869611
LeftLeg 23.237738 -0.000000 -0.000000
LeftFoot -13.633046 9.355032 -6.861861
LeftToeBase 8.763362 -0.000000 -0.000000
RightUpLeg -129.157037 -1.753976 35.425614
RightLeg 93.373337 -0.000000 -0.000000
RightFoot -24.085673 -26.154678 9.445649
RightToeBase -26.069643 -0.000000 0.000000
869
root 8.836291 37.157450 4.191018 113.221400 -74.224549 -75.506786
Spine -39.253336 0.026070 12.044572
Head 33.471388 1.978913 10.808201
LeftShoulder -10.511176 24.422200 12.473341
LeftArm 21.781664 27.738121 -75.269645
LeftForeArm 18.873274 -0.000000 30.452068
LeftHand -12.638173 -0.000000 -11.318139
LeftHandThumb1 -26.253704 0.000000 33.147579
RightShoulder -40.942098 -53.042322 18.779613
RightArm 56.671266 -24.014115 43.388759
RightForeArm 1.265412 -0.000000 25.809375
RightHand -2.061091 -0.000000 27.280757
RightHandThumb1 -24.326973 -0.000000 -32.862282
LeftUpLeg -50.990283 16.672543 -4.855639
LeftLeg 23.290174 -0.000000 -0.000000
LeftFoot -13.657372 9.238653 -6.898470
LeftToeBase 8.814483 -0.000000 -0.000000
RightUpLeg -129.174147 -2.117471 35.033460
RightLeg 93.467011 -0.000000 -0.000000
RightFoot -23.993018 -27.133269 8.766198
RightToeBase -26.413312 -0.000000 0.000000
870
root 8.824186 37.157314 4.192283 112.962934 -74.181180 -75.249927
Spine -39.289303 0.073887 12.052764
Head 33.413815 1.888722 10.789597
LeftShoulder -10.516817 24.408877 12.462443
LeftArm 21.798611 27.809263 -75.262891
LeftForeArm 18.841542 -0.000000 30.515722
LeftHand -12.611212 -0.000000 -11.281708
LeftHandThumb1 -26.253704 0.000000 33.147579
RightShoulder -40.939775 -53.019945 18.746453
RightArm 56.735833 -24.055874 43.293678
RightForeArm 1.066842 -0.000000 25.849913
RightHand -2.178201 -0.000000 27.800853
RightHandThumb1 -24.326973 -0.000000 -32.862282
LeftUpLeg -50.994845 16.665739 -4.809378
LeftLeg 23.335628 -0.000000 -0.000000
LeftFoot -13.676962 9.176931 -6.907854
LeftToeBase 8.819543 -0.000000 -0.000000
RightUpLeg -129.200907 -2.484182 34.680074
RightLeg 93.665829 -0.000000 -0.000000
RightFoot -24.046852 -27.898895 8.574385
RightToeBase -26.770369 -0.000000 0.000000
871
root 8.811439 37.156074 4.193003 112.700512 -74.132046 -75.004347
Spine -39.306900 0.125107 12.061232
Head 33.349185 1.790303 10.772735
LeftShoulder -10.536379 24.418822 12.440159
LeftArm 21.846737 27.773418 -75.274649
LeftForeArm 18.630691 0.000000 30.551549
LeftHand -12.545699 -0.000000 -11.494735
LeftHandThumb1 -26.253704 0.000000 33.147579
RightShoulder -40.931936 -53.014662 18.721511
RightArm 56.806744 -24.082440 43.202676
RightForeArm 0.969678 0.000000 25.891169
RightHand -2.378083 -0.000000 28.110326
RightHandThumb1 -24.326973 -0.000000 -32.862282
LeftUpLeg -50.984103 16.638865 -4.736320
LeftLeg 23.395919 -0.000000 -0.000000
LeftFoot -13.706990 9.163731 -6.889504
LeftToeBase 8.802145 -0.000000 -0.000000
RightUpLeg -129.221172 -2.849476 34.352099
RightLeg 93.935891 -0.000000 -0.000000
RightFoot -24.044477 -28.582421 8.319769
RightToeBase -27.156365 -0.000000 0.000000
